HIERARCHY
ROOT Hips
{
	OFFSET 0.00000 0.00000 0.00000
	CHANNELS 6 Xposition Yposition Zposition Yrotation Zrotation Xrotation 
	JOINT Lumbar
	{
		OFFSET 0 0 0
		CHANNELS 3 Zrotation Xrotation Yrotation
		JOINT Neck
		{
			OFFSET 0.00 0.2701 0.00
			CHANNELS 3 Zrotation Xrotation Yrotation
			End Site
			{
				OFFSET 0.00 0.1379 0.00
			}
		}
		JOINT RightShoulder
		{
			OFFSET 0.0119 0.2289 0.1181
			CHANNELS 3 Zrotation Xrotation Yrotation
			JOINT RightElbow
			{
				OFFSET 0.00 -0.1475 0.00
				CHANNELS 2 Zrotation Yrotation
				JOINT RightWrist
				{
					OFFSET 0.00 -0.1605 0.00
					CHANNELS 2 Zrotation Xrotation
					End Site
					{
						OFFSET 0.0040 -0.1068 0.0006
					}
				}
			}
		}
		JOINT LeftShoulder
		{
			OFFSET 0.0119 0.2289 -0.1181
			CHANNELS 3 Zrotation Xrotation Yrotation
			JOINT LeftElbow
			{
				OFFSET 0.00 -0.1475 0.00
				CHANNELS 2 Zrotation Yrotation
				JOINT LeftWrist
				{
					OFFSET 0.00 -0.1605 0.00
					CHANNELS 2 Zrotation Xrotation
					End Site
					{
						OFFSET 0.0040 -0.1068 -0.0006
					}
				}
			}
		}
	}
	JOINT RightHip
	{
		OFFSET 0.0316 -0.0424 0.0458
		CHANNELS 3 Zrotation Xrotation Yrotation
		JOINT RightKnee
		{
			OFFSET 0.00 -0.2438 0.00
			CHANNELS 1 Zrotation
			JOINT RightAnkle
			{
				OFFSET 0.00 -0.2449 0.00
				CHANNELS 3 Zrotation Xrotation Yrotation
				End Site
				{
					OFFSET 0.1237 -0.0542 0.0051
				}
			}
		}
	}
	JOINT LeftHip
	{
		OFFSET 0.0316 -0.0424 -0.0458
		CHANNELS 3 Zrotation Xrotation Yrotation
		JOINT LeftKnee
		{
			OFFSET 0.00 -0.2438 0.00
			CHANNELS 1 Zrotation
			JOINT LeftAnkle
			{
				OFFSET 0.00 -0.2449 0.00
				CHANNELS 3 Zrotation Xrotation Yrotation
				End Site
				{
					OFFSET 0.1237 -0.0542 -0.0051
				}
			}
		}
	}
}
MOTION
Frames: 33
Frame Time: 0.02
-0.98738 0.00021 -0.11359 212.73887 -67.14102 -2.22687 -11.5403 3.90677 5.77846 -31.13615 -11.42088 -0.83079 112.42725 1.19806 -89.80199 5.33406 83.72545 0.64717 -1.21605 102.73677 14.75957 -54.31201 20.99391 -80.36876 -7.96016 1.23441 84.64353 1.85492 -10.93263 -30.76265 -7.03691 -4.12284 -2.83193 82.54346 7.40394 2.88722 -30.0061 -7.07637 2.58717 1.98757
-0.98805 0.00025 -0.11351 212.86454 -67.0933 -2.1745 -11.57001 3.94187 5.58164 -30.96723 -11.78091 -0.83079 112.27142 1.43286 -90.13938 5.33338 85.61949 1.36375 -0.4042 102.77059 14.81288 -54.77133 21.13532 -80.38754 -8.53789 1.18445 84.51824 1.81745 -11.08285 -30.75822 -7.03433 -4.12998 -2.83402 82.40954 7.45286 3.09674 -29.94682 -7.08018 2.55519 1.96563
-0.98884 0.00032 -0.1134 213.01763 -67.04262 -2.12519 -11.60354 3.99773 5.39355 -30.78341 -12.15919 -0.83079 111.99039 1.62847 -90.0048 5.3323 87.97354 1.94405 0.44331 102.74984 14.85676 -55.08988 21.29617 -80.4268 -9.08895 1.18941 84.36446 1.783 -11.25573 -30.72561 -7.0273 -4.13409 -2.83482 82.24996 7.51769 3.34764 -29.85825 -7.08473 2.51654 1.93993
-0.98959 0.00038 -0.1133 213.15316 -66.99789 -2.07752 -11.63008 4.03989 5.20667 -30.5956 -12.52409 -0.83079 111.75146 1.82097 -89.20624 5.33145 90.10303 2.56978 1.27277 102.74911 14.90417 -55.43809 21.4447 -80.46331 -9.59369 1.17972 84.22688 1.75213 -11.40986 -30.70324 -7.02208 -4.13971 -2.83627 82.10557 7.57535 3.57145 -29.78217 -7.08853 2.48203 1.91682
-0.99029 0.00043 -0.11321 213.311 -66.93384 -2.01674 -11.67864 4.10009 4.99637 -30.45217 -12.91271 -0.83079 111.57355 2.09505 -91.97793 5.33043 92.31416 3.26832 2.11583 102.76922 14.95564 -55.93221 21.60913 -80.47316 -10.34147 1.12702 84.0765 1.70032 -11.59851 -30.6929 -7.01792 -4.14529 -2.83763 81.94708 7.63389 3.83527 -29.71058 -7.09404 2.44226 1.88958
-0.99112 0.00051 -0.11309 213.42844 -66.9091 -1.98406 -11.68281 4.12755 4.83762 -30.21317 -13.25536 -0.83079 111.23976 2.19646 -87.37375 5.32964 94.45443 3.78259 2.93438 102.73277 14.99609 -56.09176 21.74445 -80.54195 -10.58412 1.17531 83.945 1.69213 -11.72407 -30.65018 -7.01035 -4.1497 -2.83862 81.81091 7.69372 4.02275 -29.62192 -7.09623 2.41224 1.87028
-0.99225 0.00065 -0.11289 213.42978 -66.99609 -2.02853 -11.55698 4.06085 4.81817 -29.71395 -13.46673 -0.83079 110.50148 1.78081 -61.02857 5.32963 96.33299 3.80874 3.70652 102.55316 15.0081 -55.32325 21.79637 -80.78162 -9.36353 1.50726 83.88114 1.81317 -11.6313 -30.52687 -6.99559 -4.15596 -2.84131 81.75075 7.75604 4.0007 -29.49768 -7.08855 2.40869 1.87301
-0.99351 0.00082 -0.11265 213.3893 -67.12241 -2.10105 -11.38744 3.9604 4.85073 -29.11926 -13.63068 -0.83079 109.61197 1.20189 -27.54858 5.32986 98.1134 3.65555 4.44679 102.31874 15.00924 -54.22998 21.81772 -81.07753 -7.64878 1.93586 83.83578 1.97663 -11.48005 -30.37139 -6.97739 -4.16047 -2.8433 81.71248 7.81854 3.89807 -29.3563 -7.07762 2.41556 1.88403
-0.99473 0.00097 -0.11243 213.36615 -67.22899 -2.16068 -11.24216 3.87437 4.86027 -28.56836 -13.81613 -0.83079 108.79452 0.7313 1.67999 5.32996 99.90733 3.59252 5.18145 102.10918 15.0155 -53.30941 21.85193 -81.33903 -6.20931 2.30828 83.77619 2.11425 -11.3819 -30.22932 -6.95992 -4.16272 -2.84393 81.65875 7.87886 3.82375 -29.21986 -7.06852 2.41917 1.89186
-0.99588 0.00113 -0.11221 213.34996 -67.34291 -2.2214 -11.07868 3.79233 4.86733 -28.01504 -14.00317 -0.83079 107.95739 0.11711 35.1584 5.33013 101.85125 3.48958 6.00194 101.89682 15.02088 -52.27582 21.89173 -81.63835 -4.556 2.73377 83.73973 2.27858 -11.177 -30.09163 -6.94556 -4.17717 -2.85127 81.62705 7.94826 3.78441 -29.09468 -7.05791 2.4166 1.89725
-0.9972 0.00129 -0.11198 213.31035 -67.45145 -2.28596 -10.94242 3.69444 4.89199 -27.44448 -14.17453 -0.83079 107.12853 -0.23863 61.50624 5.33022 103.4503 3.42729 6.63602 101.67939 15.02539 -51.40508 21.9117 -81.87233 -3.22969 3.07165 83.66047 2.39869 -11.17475 -29.93724 -6.92429 -4.16661 -2.84491 81.55541 7.99903 3.65454 -28.94204 -7.0497 2.42911 1.90956
-0.99893 0.00148 -0.11168 213.20464 -67.53097 -2.3584 -10.89418 3.55474 4.95088 -26.84827 -14.32122 -0.83079 106.34748 0.17996 66.12497 5.33 104.14281 3.53551 6.75919 101.45 15.0318 -51.04047 21.88989 -81.90908 -2.93931 3.13785 83.45338 2.37433 -11.79319 -29.74738 -6.88202 -4.08061 -2.79712 81.36476 7.99423 3.27618 -28.72076 -7.04868 2.48375 1.94071
-1.00083 0.00168 -0.11136 213.07906 -67.60462 -2.43281 -10.87441 3.40133 5.02593 -26.23843 -14.45232 -0.83079 105.58333 0.86035 63.37174 5.32968 104.48387 3.6887 6.69646 101.22011 15.03726 -50.85589 21.84797 -81.87866 -2.99303 3.11334 83.20376 2.30619 -12.6086 -29.54145 -6.83348 -3.97081 -2.7363 81.134 7.97128 2.81234 -28.47203 -7.05025 2.55268 1.97827
-1.00267 0.00188 -0.11105 212.96981 -67.68389 -2.50378 -10.84014 3.25819 5.09462 -25.6357 -14.58592 -0.83079 104.81937 1.4079 64.18624 5.32942 104.97094 3.81268 6.72122 100.99775 15.04237 -50.60478 21.81168 -81.88083 -2.88132 3.13414 82.97702 2.26592 -13.30313 -29.3412 -6.78963 -3.87634 -2.68388 80.92382 7.95936 2.3998 -28.23409 -7.0508 2.61306 2.01176
-1.00447 0.00207 -0.11074 212.82743 -67.7519 -2.58707 -10.81094 3.09675 5.16103 -25.02534 -14.73744 -0.83079 104.01489 2.00943 64.34015 5.32912 105.51834 3.96778 6.73206 100.74125 15.05117 -50.27799 21.78951 -81.87603 -2.7902 3.14132 82.73561 2.19351 -14.12851 -29.14664 -6.7378 -3.76266 -2.62089 80.70409 7.93608 1.93327 -28.00266 -7.05054 2.68239 2.05033
-1.00638 0.00227 -0.11043 212.75095 -67.84168 -2.64402 -10.77849 2.97072 5.2353 -24.42939 -14.8483 -0.83079 103.30323 2.56136 64.01578 5.32888 105.85083 4.07054 6.72831 100.55815 15.05122 -50.15548 21.73311 -81.86933 -2.74479 3.1538 82.51481 2.17703 -14.72831 -28.93688 -6.70125 -3.68347 -2.57692 80.49488 7.93169 1.55822 -27.75134 -7.05267 2.73646 2.07982
-1.00853 0.00248 -0.11016 212.85253 -67.99102 -2.63399 -10.73036 2.945 5.32753 -23.87287 -14.85292 -0.83079 102.82459 2.92551 64.22364 5.32883 105.73962 4.02423 6.72819 100.56406 15.03539 -50.55727 21.59096 -81.87038 -2.7403 3.20489 82.35824 2.32589 -14.66286 -28.68907 -6.70742 -3.70442 -2.58804 80.32115 7.98784 1.47181 -27.45233 -7.06029 2.74374 2.08182
-1.01078 0.0027 -0.1099 213.02311 -68.16272 -2.59596 -10.67812 2.95571 5.42684 -23.33248 -14.81695 -0.83079 102.44347 3.22886 64.15752 5.32888 105.41577 3.92379 6.72 100.64686 15.00915 -51.15878 21.41463 -81.87167 -2.77257 3.26371 82.22456 2.53209 -14.3634 -28.42688 -6.72932 -3.761 -2.61884 80.16009 8.06287 1.47793 -27.13429 -7.07032 2.73533 2.07456
-1.01298 0.00292 -0.10964 213.16785 -68.32521 -2.56666 -10.62784 2.95042 5.52246 -22.78765 -14.79838 -0.83079 102.03059 3.5525 64.15081 5.32884 105.14412 3.84439 6.71705 100.70357 14.98268 -51.66834 21.25136 -81.87548 -2.7913 3.3172 82.08212 2.71193 -14.1667 -28.17118 -6.74475 -3.80198 -2.64113 79.99517 8.12669 1.43224 -26.82459 -7.07957 2.73481 2.07203
-1.01519 0.00314 -0.10935 213.28797 -68.48321 -2.55476 -10.57823 2.94222 5.62054 -22.23017 -14.78378 -0.83079 101.56376 3.91708 64.174 5.32884 105.03554 3.77997 6.70203 100.72221 14.97789 -52.19104 21.09716 -81.868 -2.80862 3.37489 81.9305 2.89233 -13.98939 -27.91425 -6.75732 -3.83997 -2.66132 79.82019 8.20104 1.42499 -26.51494 -7.08761 2.73159 2.06752
-1.0174 0.00335 -0.10912 213.4768 -68.65629 -2.49938 -10.52574 2.94899 5.71515 -21.70297 -14.75131 -0.83079 101.23404 4.17742 64.1554 5.32894 104.55673 3.67281 6.71131 100.83922 14.92453 -52.7289 20.91704 -81.88232 -2.83287 3.42731 81.80497 3.08475 -13.71682 -27.65772 -6.77938 -3.89255 -2.6905 79.67053 8.25813 1.36045 -26.20139 -7.09868 2.7301 2.06485
-1.01957 0.00357 -0.10904 213.83333 -68.86276 -2.33422 -10.46747 2.98793 5.79697 -21.25561 -14.68086 -0.83079 101.2441 4.17359 64.16985 5.32864 102.96299 3.4404 6.80202 101.2026 14.74722 -53.28206 20.66717 -81.98006 -2.86895 3.45954 81.7389 3.30439 -13.20977 -27.39877 -6.82631 -3.98045 -2.74172 79.58137 8.2634 1.11917 -25.87962 -7.11763 2.73675 2.06942
-1.02173 0.00379 -0.10902 214.25867 -69.08429 -2.12478 -10.40614 3.04096 5.87547 -20.83776 -14.59347 -0.83079 101.39139 4.06428 64.15584 5.32909 101.02256 3.16748 6.91593 101.66368 14.51973 -53.83884 20.39393 -82.09596 -2.90876 3.48746 81.70059 3.5324 -12.61956 -27.14322 -6.8818 -4.08124 -2.801 79.51921 8.25055 0.81733 -25.55578 -7.13948 2.7456 2.07611
-1.02389 0.004 -0.10898 214.65479 -69.30064 -1.93444 -10.34522 3.08756 5.9561 -20.40694 -14.51316 -0.83079 101.48579 3.99588 64.15948 5.32896 99.35043 2.93011 7.01229 102.08408 14.31049 -54.37808 20.13554 -82.1883 -2.94404 3.52006 81.65343 3.75203 -12.08488 -26.88943 -6.93181 -4.1738 -2.85533 79.44826 8.24596 0.5402 -25.23358 -7.15993 2.75381 2.08194
-1.02608 0.00424 -0.10891 215.04068 -69.51029 -1.75092 -10.28807 3.13483 6.0335 -19.97665 -14.43469 -0.83079 101.54413 3.95411 64.19874 5.32766 97.24502 2.63078 7.13854 102.49086 14.12107 -54.9903 19.85725 -82.34423 -2.99273 3.54085 81.58802 3.99475 -11.46614 -26.61666 -6.98917 -4.2776 -2.91579 79.36061 8.24241 0.27557 -24.90502 -7.18089 2.76038 2.08723
-1.02819 0.00442 -0.10893 215.46832 -69.73774 -1.53868 -10.22272 3.18444 6.11786 -19.54974 -14.34806 -0.83079 101.70823 3.83393 64.07411 5.33168 95.91 2.43618 7.2073 102.94893 13.8774 -55.45025 19.61637 -82.3733 -3.01395 3.58581 81.57085 4.18838 -11.00717 -26.39006 -7.03293 -4.36059 -2.96511 79.31702 8.23152 -0.0275 -24.59289 -7.20132 2.77057 2.09399
-1.03007 0.00449 -0.10914 215.95351 -70.00573 -1.29312 -10.13328 3.22976 6.21283 -19.14397 -14.25118 -0.83079 102.13908 3.50987 64.27523 5.32541 97.25765 2.67746 7.11807 103.51884 13.50703 -55.47474 19.47675 -82.03629 -2.95618 3.6933 81.64785 4.26351 -10.99553 -26.244 -7.03834 -4.38296 -2.98218 79.36418 8.20987 -0.44832 -24.29954 -7.22079 2.79458 2.10669
-1.03184 0.00449 -0.10943 216.4871 -70.2918 -1.01219 -10.03654 3.27814 6.31678 -18.73635 -14.14579 -0.83079 102.67161 3.11222 64.17886 5.32787 99.31886 3.00348 6.96812 104.13809 13.08225 -55.34756 19.37791 -81.57288 -2.87041 3.82662 81.77936 4.28525 -11.14924 -26.15433 -7.02962 -4.38396 -2.98769 79.46018 8.18027 -0.90056 -24.02939 -7.23938 2.82135 2.12037
-1.03364 0.00452 -0.1097 217.02315 -70.57289 -0.72654 -9.94405 3.32979 6.42261 -18.3178 -14.0386 -0.83079 103.14915 2.75859 63.70447 5.34414 100.72937 3.19714 6.84294 104.73772 12.67485 -55.29793 19.26478 -81.17507 -2.79926 3.95104 81.90565 4.31842 -11.24038 -26.06741 -7.02626 -4.39435 -2.99795 79.54857 8.15107 -1.32245 -23.76462 -7.25757 2.84415 2.13213
-1.03554 0.00459 -0.10993 217.4524 -70.84139 -0.53359 -9.84579 3.36236 6.50262 -17.9525 -13.95293 -0.83079 103.66039 2.36105 65.36138 5.29038 103.4522 3.7723 6.7342 105.32739 12.29504 -55.21177 19.13003 -80.7444 -2.72208 4.06168 81.94619 4.40543 -11.28402 -25.85515 -7.02704 -4.4058 -3.01017 79.57256 8.13541 -1.81715 -23.42661 -7.27928 2.87878 2.15033
-1.03721 0.00453 -0.11025 218.12224 -71.13954 -0.13164 -9.76003 3.4351 6.63924 -17.47231 -13.82288 -0.83079 104.1341 2.03325 62.55172 5.37826 103.68279 3.59018 6.57187 105.95025 11.84759 -55.16607 19.05389 -80.35075 -2.64849 4.20929 82.18317 4.36834 -11.45615 -25.9244 -7.01652 -4.41075 -3.01605 79.74664 8.08915 -2.16322 -23.25412 -7.29334 2.88905 2.15512
-1.03833 0.00417 -0.11073 219.37958 -71.5199 0.77026 -9.6924 3.61847 6.92345 -16.70322 -13.55436 -0.83079 104.38775 1.96554 47.12441 5.91023 96.27426 1.15222 6.31753 106.63388 11.2103 -55.2644 19.10005 -80.10046 -2.61235 4.4355 82.90429 3.99351 -12.03714 -26.69839 -6.97131 -4.39434 -3.00193 80.28268 7.96645 -2.12206 -23.47115 -7.28683 2.83432 2.1246
-1.03922 0.00365 -0.11128 220.88895 -71.92789 1.8943 -9.64123 3.8418 7.26491 -15.81414 -13.24565 -0.83079 104.6147 1.96245 27.28905 6.57493 86.43823 -2.02435 6.00487 107.35149 10.51103 -55.40911 19.20989 -79.88995 -2.578 4.70161 83.82943 3.49667 -12.72524 -27.7657 -6.91629 -4.37349 -2.98269 80.97533 7.81201 -1.924 -23.86654 -7.27241 2.75455 2.08026
